<mxfile host="app.diagrams.net" agent="Mozilla/5.0 (Windows NT 10.0; Win64; x64; rv:132.0) Gecko/20100101 Firefox/132.0" version="24.8.3">
  <diagram name="Page-1" id="d_wN142GEvKjSIs4hWVD">
    <mxGraphModel dx="4097" dy="2209" grid="1" gridSize="10" guides="1" tooltips="1" connect="1" arrows="1" fold="1" page="1" pageScale="1" pageWidth="1400" pageHeight="850" math="0" shadow="0">
      <root>
        <mxCell id="0" />
        <mxCell id="1" parent="0" />
        <mxCell id="UuXzAFl8zNPXqUN-9O2e-182" value="" style="rounded=0;whiteSpace=wrap;html=1;" vertex="1" parent="1">
          <mxGeometry x="230" y="1035" width="890" height="600" as="geometry" />
        </mxCell>
        <mxCell id="UuXzAFl8zNPXqUN-9O2e-117" value="" style="rounded=0;whiteSpace=wrap;html=1;" vertex="1" parent="1">
          <mxGeometry x="230" y="420" width="890" height="600" as="geometry" />
        </mxCell>
        <mxCell id="UuXzAFl8zNPXqUN-9O2e-116" value="" style="rounded=0;whiteSpace=wrap;html=1;" vertex="1" parent="1">
          <mxGeometry x="235" y="80" width="885" height="320" as="geometry" />
        </mxCell>
        <mxCell id="DVIwmyQBBpOv4USfi71m-3" value="" style="edgeStyle=orthogonalEdgeStyle;rounded=0;orthogonalLoop=1;jettySize=auto;html=1;curved=0;" parent="1" source="DVIwmyQBBpOv4USfi71m-1" target="DVIwmyQBBpOv4USfi71m-2" edge="1">
          <mxGeometry relative="1" as="geometry" />
        </mxCell>
        <mxCell id="DVIwmyQBBpOv4USfi71m-1" value="" style="html=1;points=[[0,0,0,0,5],[0,1,0,0,-5],[1,0,0,0,5],[1,1,0,0,-5]];perimeter=orthogonalPerimeter;outlineConnect=0;targetShapes=umlLifeline;portConstraint=eastwest;newEdgeStyle={&quot;curved&quot;:0,&quot;rounded&quot;:0};fillColor=#000000;" parent="1" vertex="1">
          <mxGeometry x="295" y="260" width="10" height="80" as="geometry" />
        </mxCell>
        <mxCell id="UuXzAFl8zNPXqUN-9O2e-1" value="" style="edgeStyle=orthogonalEdgeStyle;rounded=0;orthogonalLoop=1;jettySize=auto;html=1;" edge="1" parent="1" source="DVIwmyQBBpOv4USfi71m-2" target="DVIwmyQBBpOv4USfi71m-4">
          <mxGeometry relative="1" as="geometry" />
        </mxCell>
        <mxCell id="DVIwmyQBBpOv4USfi71m-2" value="" style="ellipse;whiteSpace=wrap;html=1;aspect=fixed;" parent="1" vertex="1">
          <mxGeometry x="375" y="260" width="80" height="80" as="geometry" />
        </mxCell>
        <mxCell id="UuXzAFl8zNPXqUN-9O2e-3" value="" style="edgeStyle=orthogonalEdgeStyle;rounded=0;orthogonalLoop=1;jettySize=auto;html=1;curved=0;" edge="1" parent="1" source="DVIwmyQBBpOv4USfi71m-4" target="UuXzAFl8zNPXqUN-9O2e-2">
          <mxGeometry relative="1" as="geometry" />
        </mxCell>
        <mxCell id="DVIwmyQBBpOv4USfi71m-4" value="" style="html=1;points=[[0,0,0,0,5],[0,1,0,0,-5],[1,0,0,0,5],[1,1,0,0,-5]];perimeter=orthogonalPerimeter;outlineConnect=0;targetShapes=umlLifeline;portConstraint=eastwest;newEdgeStyle={&quot;curved&quot;:0,&quot;rounded&quot;:0};fillColor=#000000;" parent="1" vertex="1">
          <mxGeometry x="525" y="260" width="10" height="80" as="geometry" />
        </mxCell>
        <mxCell id="UuXzAFl8zNPXqUN-9O2e-5" value="" style="edgeStyle=orthogonalEdgeStyle;rounded=0;orthogonalLoop=1;jettySize=auto;html=1;" edge="1" parent="1" source="UuXzAFl8zNPXqUN-9O2e-2" target="UuXzAFl8zNPXqUN-9O2e-4">
          <mxGeometry relative="1" as="geometry" />
        </mxCell>
        <mxCell id="UuXzAFl8zNPXqUN-9O2e-2" value="" style="ellipse;whiteSpace=wrap;html=1;aspect=fixed;" vertex="1" parent="1">
          <mxGeometry x="625" y="260" width="80" height="80" as="geometry" />
        </mxCell>
        <mxCell id="UuXzAFl8zNPXqUN-9O2e-14" value="" style="edgeStyle=orthogonalEdgeStyle;rounded=0;orthogonalLoop=1;jettySize=auto;html=1;curved=0;" edge="1" parent="1" source="UuXzAFl8zNPXqUN-9O2e-4" target="UuXzAFl8zNPXqUN-9O2e-13">
          <mxGeometry relative="1" as="geometry" />
        </mxCell>
        <mxCell id="UuXzAFl8zNPXqUN-9O2e-4" value="" style="html=1;points=[[0,0,0,0,5],[0,1,0,0,-5],[1,0,0,0,5],[1,1,0,0,-5]];perimeter=orthogonalPerimeter;outlineConnect=0;targetShapes=umlLifeline;portConstraint=eastwest;newEdgeStyle={&quot;curved&quot;:0,&quot;rounded&quot;:0};fillColor=#000000;" vertex="1" parent="1">
          <mxGeometry x="785" y="260" width="10" height="80" as="geometry" />
        </mxCell>
        <mxCell id="UuXzAFl8zNPXqUN-9O2e-6" value="" style="ellipse;whiteSpace=wrap;html=1;aspect=fixed;" vertex="1" parent="1">
          <mxGeometry x="625" y="130" width="80" height="80" as="geometry" />
        </mxCell>
        <mxCell id="UuXzAFl8zNPXqUN-9O2e-8" value="" style="ellipse;whiteSpace=wrap;html=1;aspect=fixed;fillColor=#050505;" vertex="1" parent="1">
          <mxGeometry x="675" y="150" width="20" height="20" as="geometry" />
        </mxCell>
        <mxCell id="UuXzAFl8zNPXqUN-9O2e-9" value="" style="ellipse;whiteSpace=wrap;html=1;aspect=fixed;fillColor=#050505;" vertex="1" parent="1">
          <mxGeometry x="635" y="150" width="20" height="20" as="geometry" />
        </mxCell>
        <mxCell id="UuXzAFl8zNPXqUN-9O2e-10" value="" style="ellipse;whiteSpace=wrap;html=1;aspect=fixed;fillColor=#050505;" vertex="1" parent="1">
          <mxGeometry x="655" y="180" width="20" height="20" as="geometry" />
        </mxCell>
        <mxCell id="UuXzAFl8zNPXqUN-9O2e-11" value="" style="endArrow=classic;html=1;rounded=0;entryX=1;entryY=0.5;entryDx=0;entryDy=0;" edge="1" parent="1" target="UuXzAFl8zNPXqUN-9O2e-6">
          <mxGeometry width="50" height="50" relative="1" as="geometry">
            <mxPoint x="795" y="270" as="sourcePoint" />
            <mxPoint x="845" y="220" as="targetPoint" />
            <Array as="points">
              <mxPoint x="815" y="270" />
              <mxPoint x="815" y="220" />
              <mxPoint x="815" y="170" />
            </Array>
          </mxGeometry>
        </mxCell>
        <mxCell id="UuXzAFl8zNPXqUN-9O2e-12" value="" style="endArrow=classic;html=1;rounded=0;entryX=0;entryY=0;entryDx=0;entryDy=5;entryPerimeter=0;" edge="1" parent="1" target="DVIwmyQBBpOv4USfi71m-4">
          <mxGeometry width="50" height="50" relative="1" as="geometry">
            <mxPoint x="625" y="170" as="sourcePoint" />
            <mxPoint x="675" y="120" as="targetPoint" />
            <Array as="points">
              <mxPoint x="505" y="170" />
              <mxPoint x="505" y="265" />
            </Array>
          </mxGeometry>
        </mxCell>
        <mxCell id="UuXzAFl8zNPXqUN-9O2e-16" value="" style="edgeStyle=orthogonalEdgeStyle;rounded=0;orthogonalLoop=1;jettySize=auto;html=1;" edge="1" parent="1" source="UuXzAFl8zNPXqUN-9O2e-13" target="UuXzAFl8zNPXqUN-9O2e-15">
          <mxGeometry relative="1" as="geometry" />
        </mxCell>
        <mxCell id="UuXzAFl8zNPXqUN-9O2e-13" value="" style="ellipse;whiteSpace=wrap;html=1;aspect=fixed;" vertex="1" parent="1">
          <mxGeometry x="885" y="260" width="80" height="80" as="geometry" />
        </mxCell>
        <mxCell id="UuXzAFl8zNPXqUN-9O2e-15" value="" style="html=1;points=[[0,0,0,0,5],[0,1,0,0,-5],[1,0,0,0,5],[1,1,0,0,-5]];perimeter=orthogonalPerimeter;outlineConnect=0;targetShapes=umlLifeline;portConstraint=eastwest;newEdgeStyle={&quot;curved&quot;:0,&quot;rounded&quot;:0};fillColor=#000000;" vertex="1" parent="1">
          <mxGeometry x="1035" y="260" width="10" height="80" as="geometry" />
        </mxCell>
        <mxCell id="UuXzAFl8zNPXqUN-9O2e-17" value="&lt;div&gt;Vehiculo se aproxima&lt;/div&gt;&lt;div&gt;al puente&lt;br&gt;&lt;/div&gt;" style="text;html=1;align=center;verticalAlign=middle;resizable=0;points=[];autosize=1;strokeColor=none;fillColor=none;" vertex="1" parent="1">
          <mxGeometry x="230" y="350" width="140" height="40" as="geometry" />
        </mxCell>
        <mxCell id="UuXzAFl8zNPXqUN-9O2e-18" value="Vehiculo espera el ingreso" style="text;html=1;align=center;verticalAlign=middle;resizable=0;points=[];autosize=1;strokeColor=none;fillColor=none;" vertex="1" parent="1">
          <mxGeometry x="330" y="215" width="170" height="30" as="geometry" />
        </mxCell>
        <mxCell id="UuXzAFl8zNPXqUN-9O2e-19" value="&lt;div&gt;Vehiculo entra&lt;/div&gt;&lt;div&gt;al puente&lt;br&gt;&lt;/div&gt;" style="text;html=1;align=center;verticalAlign=middle;resizable=0;points=[];autosize=1;strokeColor=none;fillColor=none;" vertex="1" parent="1">
          <mxGeometry x="480" y="340" width="100" height="40" as="geometry" />
        </mxCell>
        <mxCell id="UuXzAFl8zNPXqUN-9O2e-20" value="&lt;div&gt;Vehiculo pasando&lt;/div&gt;&lt;div&gt;el puente&lt;br&gt;&lt;/div&gt;" style="text;html=1;align=center;verticalAlign=middle;resizable=0;points=[];autosize=1;strokeColor=none;fillColor=none;" vertex="1" parent="1">
          <mxGeometry x="605" y="340" width="120" height="40" as="geometry" />
        </mxCell>
        <mxCell id="UuXzAFl8zNPXqUN-9O2e-21" value="&lt;div&gt;Vehiculo&lt;/div&gt;&lt;div&gt;sale del puente&lt;br&gt;&lt;/div&gt;" style="text;html=1;align=center;verticalAlign=middle;resizable=0;points=[];autosize=1;strokeColor=none;fillColor=none;" vertex="1" parent="1">
          <mxGeometry x="735" y="340" width="110" height="40" as="geometry" />
        </mxCell>
        <mxCell id="UuXzAFl8zNPXqUN-9O2e-22" value="Salida" style="text;html=1;align=center;verticalAlign=middle;resizable=0;points=[];autosize=1;strokeColor=none;fillColor=none;" vertex="1" parent="1">
          <mxGeometry x="895" y="345" width="60" height="30" as="geometry" />
        </mxCell>
        <mxCell id="UuXzAFl8zNPXqUN-9O2e-23" value="&lt;div&gt;Vehiculo se retira&lt;br&gt;&lt;/div&gt;" style="text;html=1;align=center;verticalAlign=middle;resizable=0;points=[];autosize=1;strokeColor=none;fillColor=none;" vertex="1" parent="1">
          <mxGeometry x="980" y="345" width="120" height="30" as="geometry" />
        </mxCell>
        <mxCell id="UuXzAFl8zNPXqUN-9O2e-24" value="Puente libre" style="text;html=1;align=center;verticalAlign=middle;resizable=0;points=[];autosize=1;strokeColor=none;fillColor=none;" vertex="1" parent="1">
          <mxGeometry x="620" y="90" width="90" height="30" as="geometry" />
        </mxCell>
        <mxCell id="UuXzAFl8zNPXqUN-9O2e-25" value="" style="edgeStyle=orthogonalEdgeStyle;rounded=0;orthogonalLoop=1;jettySize=auto;html=1;curved=0;" edge="1" parent="1" source="UuXzAFl8zNPXqUN-9O2e-26" target="UuXzAFl8zNPXqUN-9O2e-28">
          <mxGeometry relative="1" as="geometry" />
        </mxCell>
        <mxCell id="UuXzAFl8zNPXqUN-9O2e-26" value="" style="html=1;points=[[0,0,0,0,5],[0,1,0,0,-5],[1,0,0,0,5],[1,1,0,0,-5]];perimeter=orthogonalPerimeter;outlineConnect=0;targetShapes=umlLifeline;portConstraint=eastwest;newEdgeStyle={&quot;curved&quot;:0,&quot;rounded&quot;:0};fillColor=#000000;" vertex="1" parent="1">
          <mxGeometry x="305" y="590" width="10" height="80" as="geometry" />
        </mxCell>
        <mxCell id="UuXzAFl8zNPXqUN-9O2e-27" value="" style="edgeStyle=orthogonalEdgeStyle;rounded=0;orthogonalLoop=1;jettySize=auto;html=1;" edge="1" parent="1" source="UuXzAFl8zNPXqUN-9O2e-28" target="UuXzAFl8zNPXqUN-9O2e-30">
          <mxGeometry relative="1" as="geometry" />
        </mxCell>
        <mxCell id="UuXzAFl8zNPXqUN-9O2e-28" value="" style="ellipse;whiteSpace=wrap;html=1;aspect=fixed;" vertex="1" parent="1">
          <mxGeometry x="385" y="590" width="80" height="80" as="geometry" />
        </mxCell>
        <mxCell id="UuXzAFl8zNPXqUN-9O2e-29" value="" style="edgeStyle=orthogonalEdgeStyle;rounded=0;orthogonalLoop=1;jettySize=auto;html=1;curved=0;" edge="1" parent="1" source="UuXzAFl8zNPXqUN-9O2e-30" target="UuXzAFl8zNPXqUN-9O2e-32">
          <mxGeometry relative="1" as="geometry" />
        </mxCell>
        <mxCell id="UuXzAFl8zNPXqUN-9O2e-30" value="" style="html=1;points=[[0,0,0,0,5],[0,1,0,0,-5],[1,0,0,0,5],[1,1,0,0,-5]];perimeter=orthogonalPerimeter;outlineConnect=0;targetShapes=umlLifeline;portConstraint=eastwest;newEdgeStyle={&quot;curved&quot;:0,&quot;rounded&quot;:0};fillColor=#000000;" vertex="1" parent="1">
          <mxGeometry x="535" y="590" width="10" height="80" as="geometry" />
        </mxCell>
        <mxCell id="UuXzAFl8zNPXqUN-9O2e-31" value="" style="edgeStyle=orthogonalEdgeStyle;rounded=0;orthogonalLoop=1;jettySize=auto;html=1;" edge="1" parent="1" source="UuXzAFl8zNPXqUN-9O2e-32" target="UuXzAFl8zNPXqUN-9O2e-34">
          <mxGeometry relative="1" as="geometry" />
        </mxCell>
        <mxCell id="UuXzAFl8zNPXqUN-9O2e-32" value="" style="ellipse;whiteSpace=wrap;html=1;aspect=fixed;" vertex="1" parent="1">
          <mxGeometry x="635" y="590" width="80" height="80" as="geometry" />
        </mxCell>
        <mxCell id="UuXzAFl8zNPXqUN-9O2e-33" value="" style="edgeStyle=orthogonalEdgeStyle;rounded=0;orthogonalLoop=1;jettySize=auto;html=1;curved=0;" edge="1" parent="1" source="UuXzAFl8zNPXqUN-9O2e-34" target="UuXzAFl8zNPXqUN-9O2e-42">
          <mxGeometry relative="1" as="geometry" />
        </mxCell>
        <mxCell id="UuXzAFl8zNPXqUN-9O2e-34" value="" style="html=1;points=[[0,0,0,0,5],[0,1,0,0,-5],[1,0,0,0,5],[1,1,0,0,-5]];perimeter=orthogonalPerimeter;outlineConnect=0;targetShapes=umlLifeline;portConstraint=eastwest;newEdgeStyle={&quot;curved&quot;:0,&quot;rounded&quot;:0};fillColor=#000000;" vertex="1" parent="1">
          <mxGeometry x="795" y="590" width="10" height="80" as="geometry" />
        </mxCell>
        <mxCell id="UuXzAFl8zNPXqUN-9O2e-35" value="" style="ellipse;whiteSpace=wrap;html=1;aspect=fixed;" vertex="1" parent="1">
          <mxGeometry x="635" y="460" width="80" height="80" as="geometry" />
        </mxCell>
        <mxCell id="UuXzAFl8zNPXqUN-9O2e-36" value="" style="ellipse;whiteSpace=wrap;html=1;aspect=fixed;fillColor=#050505;" vertex="1" parent="1">
          <mxGeometry x="685" y="480" width="20" height="20" as="geometry" />
        </mxCell>
        <mxCell id="UuXzAFl8zNPXqUN-9O2e-37" value="" style="ellipse;whiteSpace=wrap;html=1;aspect=fixed;fillColor=#050505;" vertex="1" parent="1">
          <mxGeometry x="645" y="480" width="20" height="20" as="geometry" />
        </mxCell>
        <mxCell id="UuXzAFl8zNPXqUN-9O2e-38" value="" style="ellipse;whiteSpace=wrap;html=1;aspect=fixed;fillColor=#050505;" vertex="1" parent="1">
          <mxGeometry x="665" y="510" width="20" height="20" as="geometry" />
        </mxCell>
        <mxCell id="UuXzAFl8zNPXqUN-9O2e-39" value="" style="endArrow=classic;html=1;rounded=0;entryX=1;entryY=0.5;entryDx=0;entryDy=0;" edge="1" parent="1" target="UuXzAFl8zNPXqUN-9O2e-35">
          <mxGeometry width="50" height="50" relative="1" as="geometry">
            <mxPoint x="805" y="600" as="sourcePoint" />
            <mxPoint x="855" y="550" as="targetPoint" />
            <Array as="points">
              <mxPoint x="825" y="600" />
              <mxPoint x="825" y="550" />
              <mxPoint x="825" y="500" />
            </Array>
          </mxGeometry>
        </mxCell>
        <mxCell id="UuXzAFl8zNPXqUN-9O2e-40" value="" style="endArrow=classic;html=1;rounded=0;entryX=0;entryY=0;entryDx=0;entryDy=5;entryPerimeter=0;" edge="1" parent="1" target="UuXzAFl8zNPXqUN-9O2e-30">
          <mxGeometry width="50" height="50" relative="1" as="geometry">
            <mxPoint x="635" y="500" as="sourcePoint" />
            <mxPoint x="685" y="450" as="targetPoint" />
            <Array as="points">
              <mxPoint x="515" y="500" />
              <mxPoint x="515" y="595" />
            </Array>
          </mxGeometry>
        </mxCell>
        <mxCell id="UuXzAFl8zNPXqUN-9O2e-41" value="" style="edgeStyle=orthogonalEdgeStyle;rounded=0;orthogonalLoop=1;jettySize=auto;html=1;" edge="1" parent="1" source="UuXzAFl8zNPXqUN-9O2e-42" target="UuXzAFl8zNPXqUN-9O2e-43">
          <mxGeometry relative="1" as="geometry" />
        </mxCell>
        <mxCell id="UuXzAFl8zNPXqUN-9O2e-42" value="" style="ellipse;whiteSpace=wrap;html=1;aspect=fixed;" vertex="1" parent="1">
          <mxGeometry x="895" y="590" width="80" height="80" as="geometry" />
        </mxCell>
        <mxCell id="UuXzAFl8zNPXqUN-9O2e-43" value="" style="html=1;points=[[0,0,0,0,5],[0,1,0,0,-5],[1,0,0,0,5],[1,1,0,0,-5]];perimeter=orthogonalPerimeter;outlineConnect=0;targetShapes=umlLifeline;portConstraint=eastwest;newEdgeStyle={&quot;curved&quot;:0,&quot;rounded&quot;:0};fillColor=#000000;" vertex="1" parent="1">
          <mxGeometry x="1045" y="590" width="10" height="80" as="geometry" />
        </mxCell>
        <mxCell id="UuXzAFl8zNPXqUN-9O2e-44" value="&lt;div&gt;Vehiculo se aproxima&lt;/div&gt;&lt;div&gt;al puente&lt;br&gt;&lt;/div&gt;" style="text;html=1;align=center;verticalAlign=middle;resizable=0;points=[];autosize=1;strokeColor=none;fillColor=none;" vertex="1" parent="1">
          <mxGeometry x="240" y="680" width="140" height="40" as="geometry" />
        </mxCell>
        <mxCell id="UuXzAFl8zNPXqUN-9O2e-45" value="Vehiculo espera el ingreso" style="text;html=1;align=center;verticalAlign=middle;resizable=0;points=[];autosize=1;strokeColor=none;fillColor=none;" vertex="1" parent="1">
          <mxGeometry x="340" y="545" width="170" height="30" as="geometry" />
        </mxCell>
        <mxCell id="UuXzAFl8zNPXqUN-9O2e-46" value="&lt;div&gt;Vehiculo entra&lt;/div&gt;&lt;div&gt;al puente&lt;br&gt;&lt;/div&gt;" style="text;html=1;align=center;verticalAlign=middle;resizable=0;points=[];autosize=1;strokeColor=none;fillColor=none;" vertex="1" parent="1">
          <mxGeometry x="490" y="670" width="100" height="40" as="geometry" />
        </mxCell>
        <mxCell id="UuXzAFl8zNPXqUN-9O2e-47" value="&lt;div&gt;Vehiculo pasando&lt;/div&gt;&lt;div&gt;el puente&lt;br&gt;&lt;/div&gt;" style="text;html=1;align=center;verticalAlign=middle;resizable=0;points=[];autosize=1;strokeColor=none;fillColor=none;" vertex="1" parent="1">
          <mxGeometry x="615" y="670" width="120" height="40" as="geometry" />
        </mxCell>
        <mxCell id="UuXzAFl8zNPXqUN-9O2e-48" value="&lt;div&gt;Vehiculo&lt;/div&gt;&lt;div&gt;sale del puente&lt;br&gt;&lt;/div&gt;" style="text;html=1;align=center;verticalAlign=middle;resizable=0;points=[];autosize=1;strokeColor=none;fillColor=none;" vertex="1" parent="1">
          <mxGeometry x="745" y="670" width="110" height="40" as="geometry" />
        </mxCell>
        <mxCell id="UuXzAFl8zNPXqUN-9O2e-49" value="Salida" style="text;html=1;align=center;verticalAlign=middle;resizable=0;points=[];autosize=1;strokeColor=none;fillColor=none;" vertex="1" parent="1">
          <mxGeometry x="905" y="675" width="60" height="30" as="geometry" />
        </mxCell>
        <mxCell id="UuXzAFl8zNPXqUN-9O2e-50" value="&lt;div&gt;Vehiculo se retira&lt;br&gt;&lt;/div&gt;" style="text;html=1;align=center;verticalAlign=middle;resizable=0;points=[];autosize=1;strokeColor=none;fillColor=none;" vertex="1" parent="1">
          <mxGeometry x="990" y="675" width="120" height="30" as="geometry" />
        </mxCell>
        <mxCell id="UuXzAFl8zNPXqUN-9O2e-51" value="Puente libre" style="text;html=1;align=center;verticalAlign=middle;resizable=0;points=[];autosize=1;strokeColor=none;fillColor=none;" vertex="1" parent="1">
          <mxGeometry x="630" y="420" width="90" height="30" as="geometry" />
        </mxCell>
        <mxCell id="UuXzAFl8zNPXqUN-9O2e-73" value="" style="html=1;points=[[0,0,0,0,5],[0,1,0,0,-5],[1,0,0,0,5],[1,1,0,0,-5]];perimeter=orthogonalPerimeter;outlineConnect=0;targetShapes=umlLifeline;portConstraint=eastwest;newEdgeStyle={&quot;curved&quot;:0,&quot;rounded&quot;:0};fillColor=#000000;flipH=0;flipV=0;" vertex="1" parent="1">
          <mxGeometry x="305" y="745" width="10" height="80" as="geometry" />
        </mxCell>
        <mxCell id="UuXzAFl8zNPXqUN-9O2e-106" value="" style="edgeStyle=orthogonalEdgeStyle;rounded=0;orthogonalLoop=1;jettySize=auto;html=1;" edge="1" parent="1" source="UuXzAFl8zNPXqUN-9O2e-75" target="UuXzAFl8zNPXqUN-9O2e-73">
          <mxGeometry relative="1" as="geometry" />
        </mxCell>
        <mxCell id="UuXzAFl8zNPXqUN-9O2e-75" value="" style="ellipse;whiteSpace=wrap;html=1;aspect=fixed;flipH=0;flipV=0;" vertex="1" parent="1">
          <mxGeometry x="393" y="745" width="80" height="80" as="geometry" />
        </mxCell>
        <mxCell id="UuXzAFl8zNPXqUN-9O2e-105" value="" style="edgeStyle=orthogonalEdgeStyle;rounded=0;orthogonalLoop=1;jettySize=auto;html=1;curved=0;" edge="1" parent="1" source="UuXzAFl8zNPXqUN-9O2e-77" target="UuXzAFl8zNPXqUN-9O2e-75">
          <mxGeometry relative="1" as="geometry" />
        </mxCell>
        <mxCell id="UuXzAFl8zNPXqUN-9O2e-77" value="" style="html=1;points=[[0,0,0,0,5],[0,1,0,0,-5],[1,0,0,0,5],[1,1,0,0,-5]];perimeter=orthogonalPerimeter;outlineConnect=0;targetShapes=umlLifeline;portConstraint=eastwest;newEdgeStyle={&quot;curved&quot;:0,&quot;rounded&quot;:0};fillColor=#000000;flipH=0;flipV=0;" vertex="1" parent="1">
          <mxGeometry x="552" y="745" width="10" height="80" as="geometry" />
        </mxCell>
        <mxCell id="UuXzAFl8zNPXqUN-9O2e-104" value="" style="edgeStyle=orthogonalEdgeStyle;rounded=0;orthogonalLoop=1;jettySize=auto;html=1;" edge="1" parent="1" source="UuXzAFl8zNPXqUN-9O2e-79" target="UuXzAFl8zNPXqUN-9O2e-77">
          <mxGeometry relative="1" as="geometry" />
        </mxCell>
        <mxCell id="UuXzAFl8zNPXqUN-9O2e-79" value="" style="ellipse;whiteSpace=wrap;html=1;aspect=fixed;flipH=0;flipV=0;" vertex="1" parent="1">
          <mxGeometry x="640" y="745" width="80" height="80" as="geometry" />
        </mxCell>
        <mxCell id="UuXzAFl8zNPXqUN-9O2e-103" value="" style="edgeStyle=orthogonalEdgeStyle;rounded=0;orthogonalLoop=1;jettySize=auto;html=1;curved=0;" edge="1" parent="1" source="UuXzAFl8zNPXqUN-9O2e-81" target="UuXzAFl8zNPXqUN-9O2e-79">
          <mxGeometry relative="1" as="geometry" />
        </mxCell>
        <mxCell id="UuXzAFl8zNPXqUN-9O2e-81" value="" style="html=1;points=[[0,0,0,0,5],[0,1,0,0,-5],[1,0,0,0,5],[1,1,0,0,-5]];perimeter=orthogonalPerimeter;outlineConnect=0;targetShapes=umlLifeline;portConstraint=eastwest;newEdgeStyle={&quot;curved&quot;:0,&quot;rounded&quot;:0};fillColor=#000000;flipH=0;flipV=0;" vertex="1" parent="1">
          <mxGeometry x="798" y="745" width="10" height="80" as="geometry" />
        </mxCell>
        <mxCell id="UuXzAFl8zNPXqUN-9O2e-102" value="" style="edgeStyle=orthogonalEdgeStyle;rounded=0;orthogonalLoop=1;jettySize=auto;html=1;" edge="1" parent="1" source="UuXzAFl8zNPXqUN-9O2e-89" target="UuXzAFl8zNPXqUN-9O2e-81">
          <mxGeometry relative="1" as="geometry" />
        </mxCell>
        <mxCell id="UuXzAFl8zNPXqUN-9O2e-89" value="" style="ellipse;whiteSpace=wrap;html=1;aspect=fixed;flipH=0;flipV=0;" vertex="1" parent="1">
          <mxGeometry x="887" y="745" width="80" height="80" as="geometry" />
        </mxCell>
        <mxCell id="UuXzAFl8zNPXqUN-9O2e-101" value="" style="edgeStyle=orthogonalEdgeStyle;rounded=0;orthogonalLoop=1;jettySize=auto;html=1;curved=0;" edge="1" parent="1" source="UuXzAFl8zNPXqUN-9O2e-90" target="UuXzAFl8zNPXqUN-9O2e-89">
          <mxGeometry relative="1" as="geometry" />
        </mxCell>
        <mxCell id="UuXzAFl8zNPXqUN-9O2e-90" value="" style="html=1;points=[[0,0,0,0,5],[0,1,0,0,-5],[1,0,0,0,5],[1,1,0,0,-5]];perimeter=orthogonalPerimeter;outlineConnect=0;targetShapes=umlLifeline;portConstraint=eastwest;newEdgeStyle={&quot;curved&quot;:0,&quot;rounded&quot;:0};fillColor=#000000;flipH=0;flipV=0;" vertex="1" parent="1">
          <mxGeometry x="1045" y="745" width="10" height="80" as="geometry" />
        </mxCell>
        <mxCell id="UuXzAFl8zNPXqUN-9O2e-91" value="&lt;div&gt;Vehiculo se aproxima&lt;/div&gt;&lt;div&gt;al puente&lt;br&gt;&lt;/div&gt;" style="text;html=1;align=center;verticalAlign=middle;resizable=0;points=[];autosize=1;strokeColor=none;fillColor=none;flipH=0;flipV=0;" vertex="1" parent="1">
          <mxGeometry x="980" y="835" width="140" height="40" as="geometry" />
        </mxCell>
        <mxCell id="UuXzAFl8zNPXqUN-9O2e-92" value="Vehiculo espera el ingreso" style="text;html=1;align=center;verticalAlign=middle;resizable=0;points=[];autosize=1;strokeColor=none;fillColor=none;flipH=0;flipV=0;" vertex="1" parent="1">
          <mxGeometry x="842" y="710" width="170" height="30" as="geometry" />
        </mxCell>
        <mxCell id="UuXzAFl8zNPXqUN-9O2e-93" value="&lt;div&gt;Vehiculo entra&lt;/div&gt;&lt;div&gt;al puente&lt;br&gt;&lt;/div&gt;" style="text;html=1;align=center;verticalAlign=middle;resizable=0;points=[];autosize=1;strokeColor=none;fillColor=none;flipH=0;flipV=0;" vertex="1" parent="1">
          <mxGeometry x="753" y="830" width="100" height="40" as="geometry" />
        </mxCell>
        <mxCell id="UuXzAFl8zNPXqUN-9O2e-94" value="&lt;div&gt;Vehiculo pasando&lt;/div&gt;&lt;div&gt;el puente&lt;br&gt;&lt;/div&gt;" style="text;html=1;align=center;verticalAlign=middle;resizable=0;points=[];autosize=1;strokeColor=none;fillColor=none;flipH=0;flipV=0;" vertex="1" parent="1">
          <mxGeometry x="615" y="825" width="120" height="40" as="geometry" />
        </mxCell>
        <mxCell id="UuXzAFl8zNPXqUN-9O2e-95" value="&lt;div&gt;Vehiculo&lt;/div&gt;&lt;div&gt;sale del puente&lt;br&gt;&lt;/div&gt;" style="text;html=1;align=center;verticalAlign=middle;resizable=0;points=[];autosize=1;strokeColor=none;fillColor=none;flipH=0;flipV=0;" vertex="1" parent="1">
          <mxGeometry x="502" y="825" width="110" height="40" as="geometry" />
        </mxCell>
        <mxCell id="UuXzAFl8zNPXqUN-9O2e-96" value="Salida" style="text;html=1;align=center;verticalAlign=middle;resizable=0;points=[];autosize=1;strokeColor=none;fillColor=none;flipH=0;flipV=0;" vertex="1" parent="1">
          <mxGeometry x="403" y="830" width="60" height="30" as="geometry" />
        </mxCell>
        <mxCell id="UuXzAFl8zNPXqUN-9O2e-97" value="&lt;div&gt;Vehiculo se retira&lt;br&gt;&lt;/div&gt;" style="text;html=1;align=center;verticalAlign=middle;resizable=0;points=[];autosize=1;strokeColor=none;fillColor=none;flipH=0;flipV=0;" vertex="1" parent="1">
          <mxGeometry x="250" y="835" width="120" height="30" as="geometry" />
        </mxCell>
        <mxCell id="UuXzAFl8zNPXqUN-9O2e-107" value="" style="ellipse;whiteSpace=wrap;html=1;aspect=fixed;" vertex="1" parent="1">
          <mxGeometry x="640" y="900" width="80" height="80" as="geometry" />
        </mxCell>
        <mxCell id="UuXzAFl8zNPXqUN-9O2e-108" value="" style="ellipse;whiteSpace=wrap;html=1;aspect=fixed;fillColor=#050505;" vertex="1" parent="1">
          <mxGeometry x="690" y="920" width="20" height="20" as="geometry" />
        </mxCell>
        <mxCell id="UuXzAFl8zNPXqUN-9O2e-109" value="" style="ellipse;whiteSpace=wrap;html=1;aspect=fixed;fillColor=#050505;" vertex="1" parent="1">
          <mxGeometry x="650" y="920" width="20" height="20" as="geometry" />
        </mxCell>
        <mxCell id="UuXzAFl8zNPXqUN-9O2e-110" value="" style="ellipse;whiteSpace=wrap;html=1;aspect=fixed;fillColor=#050505;" vertex="1" parent="1">
          <mxGeometry x="670" y="950" width="20" height="20" as="geometry" />
        </mxCell>
        <mxCell id="UuXzAFl8zNPXqUN-9O2e-111" value="" style="endArrow=classic;html=1;rounded=0;entryX=1;entryY=1;entryDx=0;entryDy=-5;entryPerimeter=0;" edge="1" parent="1" target="UuXzAFl8zNPXqUN-9O2e-81">
          <mxGeometry width="50" height="50" relative="1" as="geometry">
            <mxPoint x="720" y="945" as="sourcePoint" />
            <mxPoint x="860" y="990" as="targetPoint" />
            <Array as="points">
              <mxPoint x="720" y="945" />
              <mxPoint x="850" y="945" />
              <mxPoint x="850" y="820" />
            </Array>
          </mxGeometry>
        </mxCell>
        <mxCell id="UuXzAFl8zNPXqUN-9O2e-114" value="" style="endArrow=classic;html=1;rounded=0;entryX=0;entryY=0.5;entryDx=0;entryDy=0;" edge="1" parent="1" target="UuXzAFl8zNPXqUN-9O2e-107">
          <mxGeometry width="50" height="50" relative="1" as="geometry">
            <mxPoint x="552" y="825" as="sourcePoint" />
            <mxPoint x="602" y="775" as="targetPoint" />
            <Array as="points">
              <mxPoint x="510" y="825" />
              <mxPoint x="510" y="940" />
            </Array>
          </mxGeometry>
        </mxCell>
        <mxCell id="UuXzAFl8zNPXqUN-9O2e-119" value="Puente libre" style="text;html=1;align=center;verticalAlign=middle;resizable=0;points=[];autosize=1;strokeColor=none;fillColor=none;" vertex="1" parent="1">
          <mxGeometry x="640" y="980" width="90" height="30" as="geometry" />
        </mxCell>
        <mxCell id="UuXzAFl8zNPXqUN-9O2e-121" value="" style="edgeStyle=orthogonalEdgeStyle;rounded=0;orthogonalLoop=1;jettySize=auto;html=1;curved=0;" edge="1" parent="1" source="UuXzAFl8zNPXqUN-9O2e-122" target="UuXzAFl8zNPXqUN-9O2e-124">
          <mxGeometry relative="1" as="geometry" />
        </mxCell>
        <mxCell id="UuXzAFl8zNPXqUN-9O2e-122" value="" style="html=1;points=[[0,0,0,0,5],[0,1,0,0,-5],[1,0,0,0,5],[1,1,0,0,-5]];perimeter=orthogonalPerimeter;outlineConnect=0;targetShapes=umlLifeline;portConstraint=eastwest;newEdgeStyle={&quot;curved&quot;:0,&quot;rounded&quot;:0};fillColor=#000000;" vertex="1" parent="1">
          <mxGeometry x="310" y="1220" width="10" height="80" as="geometry" />
        </mxCell>
        <mxCell id="UuXzAFl8zNPXqUN-9O2e-123" value="" style="edgeStyle=orthogonalEdgeStyle;rounded=0;orthogonalLoop=1;jettySize=auto;html=1;" edge="1" parent="1" source="UuXzAFl8zNPXqUN-9O2e-124" target="UuXzAFl8zNPXqUN-9O2e-126">
          <mxGeometry relative="1" as="geometry" />
        </mxCell>
        <mxCell id="UuXzAFl8zNPXqUN-9O2e-124" value="" style="ellipse;whiteSpace=wrap;html=1;aspect=fixed;" vertex="1" parent="1">
          <mxGeometry x="390" y="1220" width="80" height="80" as="geometry" />
        </mxCell>
        <mxCell id="UuXzAFl8zNPXqUN-9O2e-125" value="" style="edgeStyle=orthogonalEdgeStyle;rounded=0;orthogonalLoop=1;jettySize=auto;html=1;curved=0;" edge="1" parent="1" source="UuXzAFl8zNPXqUN-9O2e-126" target="UuXzAFl8zNPXqUN-9O2e-128">
          <mxGeometry relative="1" as="geometry">
            <Array as="points">
              <mxPoint x="590" y="1260" />
              <mxPoint x="590" y="1335" />
            </Array>
          </mxGeometry>
        </mxCell>
        <mxCell id="UuXzAFl8zNPXqUN-9O2e-126" value="" style="html=1;points=[[0,0,0,0,5],[0,1,0,0,-5],[1,0,0,0,5],[1,1,0,0,-5]];perimeter=orthogonalPerimeter;outlineConnect=0;targetShapes=umlLifeline;portConstraint=eastwest;newEdgeStyle={&quot;curved&quot;:0,&quot;rounded&quot;:0};fillColor=#000000;" vertex="1" parent="1">
          <mxGeometry x="540" y="1220" width="10" height="80" as="geometry" />
        </mxCell>
        <mxCell id="UuXzAFl8zNPXqUN-9O2e-127" value="" style="edgeStyle=orthogonalEdgeStyle;rounded=0;orthogonalLoop=1;jettySize=auto;html=1;" edge="1" parent="1" source="UuXzAFl8zNPXqUN-9O2e-128" target="UuXzAFl8zNPXqUN-9O2e-130">
          <mxGeometry relative="1" as="geometry" />
        </mxCell>
        <mxCell id="UuXzAFl8zNPXqUN-9O2e-128" value="" style="ellipse;whiteSpace=wrap;html=1;aspect=fixed;" vertex="1" parent="1">
          <mxGeometry x="640" y="1295" width="80" height="80" as="geometry" />
        </mxCell>
        <mxCell id="UuXzAFl8zNPXqUN-9O2e-129" value="" style="edgeStyle=orthogonalEdgeStyle;rounded=0;orthogonalLoop=1;jettySize=auto;html=1;curved=0;" edge="1" parent="1" source="UuXzAFl8zNPXqUN-9O2e-130" target="UuXzAFl8zNPXqUN-9O2e-138">
          <mxGeometry relative="1" as="geometry" />
        </mxCell>
        <mxCell id="UuXzAFl8zNPXqUN-9O2e-130" value="" style="html=1;points=[[0,0,0,0,5],[0,1,0,0,-5],[1,0,0,0,5],[1,1,0,0,-5]];perimeter=orthogonalPerimeter;outlineConnect=0;targetShapes=umlLifeline;portConstraint=eastwest;newEdgeStyle={&quot;curved&quot;:0,&quot;rounded&quot;:0};fillColor=#000000;" vertex="1" parent="1">
          <mxGeometry x="800" y="1220" width="10" height="80" as="geometry" />
        </mxCell>
        <mxCell id="UuXzAFl8zNPXqUN-9O2e-131" value="" style="ellipse;whiteSpace=wrap;html=1;aspect=fixed;" vertex="1" parent="1">
          <mxGeometry x="640" y="1090" width="80" height="80" as="geometry" />
        </mxCell>
        <mxCell id="UuXzAFl8zNPXqUN-9O2e-132" value="" style="ellipse;whiteSpace=wrap;html=1;aspect=fixed;fillColor=#050505;" vertex="1" parent="1">
          <mxGeometry x="690" y="1120" width="20" height="20" as="geometry" />
        </mxCell>
        <mxCell id="UuXzAFl8zNPXqUN-9O2e-133" value="" style="ellipse;whiteSpace=wrap;html=1;aspect=fixed;fillColor=#050505;" vertex="1" parent="1">
          <mxGeometry x="650" y="1120" width="20" height="20" as="geometry" />
        </mxCell>
        <mxCell id="UuXzAFl8zNPXqUN-9O2e-134" value="" style="ellipse;whiteSpace=wrap;html=1;aspect=fixed;fillColor=#050505;" vertex="1" parent="1">
          <mxGeometry x="670" y="1140" width="20" height="20" as="geometry" />
        </mxCell>
        <mxCell id="UuXzAFl8zNPXqUN-9O2e-135" value="" style="endArrow=classic;html=1;rounded=0;entryX=1;entryY=0.5;entryDx=0;entryDy=0;" edge="1" parent="1" target="UuXzAFl8zNPXqUN-9O2e-131">
          <mxGeometry width="50" height="50" relative="1" as="geometry">
            <mxPoint x="810" y="1230" as="sourcePoint" />
            <mxPoint x="860" y="1180" as="targetPoint" />
            <Array as="points">
              <mxPoint x="830" y="1230" />
              <mxPoint x="830" y="1180" />
              <mxPoint x="830" y="1130" />
            </Array>
          </mxGeometry>
        </mxCell>
        <mxCell id="UuXzAFl8zNPXqUN-9O2e-136" value="" style="endArrow=classic;html=1;rounded=0;entryX=0;entryY=0;entryDx=0;entryDy=5;entryPerimeter=0;" edge="1" parent="1" target="UuXzAFl8zNPXqUN-9O2e-126">
          <mxGeometry width="50" height="50" relative="1" as="geometry">
            <mxPoint x="640" y="1130" as="sourcePoint" />
            <mxPoint x="690" y="1080" as="targetPoint" />
            <Array as="points">
              <mxPoint x="520" y="1130" />
              <mxPoint x="520" y="1225" />
            </Array>
          </mxGeometry>
        </mxCell>
        <mxCell id="UuXzAFl8zNPXqUN-9O2e-137" value="" style="edgeStyle=orthogonalEdgeStyle;rounded=0;orthogonalLoop=1;jettySize=auto;html=1;" edge="1" parent="1" source="UuXzAFl8zNPXqUN-9O2e-138" target="UuXzAFl8zNPXqUN-9O2e-139">
          <mxGeometry relative="1" as="geometry" />
        </mxCell>
        <mxCell id="UuXzAFl8zNPXqUN-9O2e-138" value="" style="ellipse;whiteSpace=wrap;html=1;aspect=fixed;" vertex="1" parent="1">
          <mxGeometry x="900" y="1220" width="80" height="80" as="geometry" />
        </mxCell>
        <mxCell id="UuXzAFl8zNPXqUN-9O2e-139" value="" style="html=1;points=[[0,0,0,0,5],[0,1,0,0,-5],[1,0,0,0,5],[1,1,0,0,-5]];perimeter=orthogonalPerimeter;outlineConnect=0;targetShapes=umlLifeline;portConstraint=eastwest;newEdgeStyle={&quot;curved&quot;:0,&quot;rounded&quot;:0};fillColor=#000000;" vertex="1" parent="1">
          <mxGeometry x="1050" y="1220" width="10" height="80" as="geometry" />
        </mxCell>
        <mxCell id="UuXzAFl8zNPXqUN-9O2e-140" value="&lt;div&gt;Vehiculo se aproxima&lt;/div&gt;&lt;div&gt;al puente&lt;br&gt;&lt;/div&gt;" style="text;html=1;align=center;verticalAlign=middle;resizable=0;points=[];autosize=1;strokeColor=none;fillColor=none;" vertex="1" parent="1">
          <mxGeometry x="245" y="1300" width="140" height="40" as="geometry" />
        </mxCell>
        <mxCell id="UuXzAFl8zNPXqUN-9O2e-141" value="Vehiculo espera el ingreso" style="text;html=1;align=center;verticalAlign=middle;resizable=0;points=[];autosize=1;strokeColor=none;fillColor=none;" vertex="1" parent="1">
          <mxGeometry x="345" y="1175" width="170" height="30" as="geometry" />
        </mxCell>
        <mxCell id="UuXzAFl8zNPXqUN-9O2e-142" value="&lt;div&gt;Vehiculo entra&lt;/div&gt;&lt;div&gt;al puente&lt;br&gt;&lt;/div&gt;" style="text;html=1;align=center;verticalAlign=middle;resizable=0;points=[];autosize=1;strokeColor=none;fillColor=none;" vertex="1" parent="1">
          <mxGeometry x="490" y="1300" width="100" height="40" as="geometry" />
        </mxCell>
        <mxCell id="UuXzAFl8zNPXqUN-9O2e-143" value="&lt;div&gt;Vehiculo pasando&lt;/div&gt;&lt;div&gt;el puente&lt;br&gt;&lt;/div&gt;" style="text;html=1;align=center;verticalAlign=middle;resizable=0;points=[];autosize=1;strokeColor=none;fillColor=none;" vertex="1" parent="1">
          <mxGeometry x="620" y="1230" width="120" height="40" as="geometry" />
        </mxCell>
        <mxCell id="UuXzAFl8zNPXqUN-9O2e-144" value="&lt;div&gt;Vehiculo&lt;/div&gt;&lt;div&gt;sale del puente&lt;br&gt;&lt;/div&gt;" style="text;html=1;align=center;verticalAlign=middle;resizable=0;points=[];autosize=1;strokeColor=none;fillColor=none;" vertex="1" parent="1">
          <mxGeometry x="750" y="1300" width="110" height="40" as="geometry" />
        </mxCell>
        <mxCell id="UuXzAFl8zNPXqUN-9O2e-145" value="Salida" style="text;html=1;align=center;verticalAlign=middle;resizable=0;points=[];autosize=1;strokeColor=none;fillColor=none;" vertex="1" parent="1">
          <mxGeometry x="910" y="1305" width="60" height="30" as="geometry" />
        </mxCell>
        <mxCell id="UuXzAFl8zNPXqUN-9O2e-146" value="&lt;div&gt;Vehiculo se retira&lt;br&gt;&lt;/div&gt;" style="text;html=1;align=center;verticalAlign=middle;resizable=0;points=[];autosize=1;strokeColor=none;fillColor=none;" vertex="1" parent="1">
          <mxGeometry x="995" y="1305" width="120" height="30" as="geometry" />
        </mxCell>
        <mxCell id="UuXzAFl8zNPXqUN-9O2e-147" value="Puente libre" style="text;html=1;align=center;verticalAlign=middle;resizable=0;points=[];autosize=1;strokeColor=none;fillColor=none;" vertex="1" parent="1">
          <mxGeometry x="635" y="1050" width="90" height="30" as="geometry" />
        </mxCell>
        <mxCell id="UuXzAFl8zNPXqUN-9O2e-148" value="" style="html=1;points=[[0,0,0,0,5],[0,1,0,0,-5],[1,0,0,0,5],[1,1,0,0,-5]];perimeter=orthogonalPerimeter;outlineConnect=0;targetShapes=umlLifeline;portConstraint=eastwest;newEdgeStyle={&quot;curved&quot;:0,&quot;rounded&quot;:0};fillColor=#000000;flipH=0;flipV=0;" vertex="1" parent="1">
          <mxGeometry x="310" y="1375" width="10" height="80" as="geometry" />
        </mxCell>
        <mxCell id="UuXzAFl8zNPXqUN-9O2e-149" value="" style="edgeStyle=orthogonalEdgeStyle;rounded=0;orthogonalLoop=1;jettySize=auto;html=1;" edge="1" parent="1" source="UuXzAFl8zNPXqUN-9O2e-150" target="UuXzAFl8zNPXqUN-9O2e-148">
          <mxGeometry relative="1" as="geometry" />
        </mxCell>
        <mxCell id="UuXzAFl8zNPXqUN-9O2e-150" value="" style="ellipse;whiteSpace=wrap;html=1;aspect=fixed;flipH=0;flipV=0;" vertex="1" parent="1">
          <mxGeometry x="398" y="1375" width="80" height="80" as="geometry" />
        </mxCell>
        <mxCell id="UuXzAFl8zNPXqUN-9O2e-151" value="" style="edgeStyle=orthogonalEdgeStyle;rounded=0;orthogonalLoop=1;jettySize=auto;html=1;curved=0;" edge="1" parent="1" source="UuXzAFl8zNPXqUN-9O2e-152" target="UuXzAFl8zNPXqUN-9O2e-150">
          <mxGeometry relative="1" as="geometry" />
        </mxCell>
        <mxCell id="UuXzAFl8zNPXqUN-9O2e-152" value="" style="html=1;points=[[0,0,0,0,5],[0,1,0,0,-5],[1,0,0,0,5],[1,1,0,0,-5]];perimeter=orthogonalPerimeter;outlineConnect=0;targetShapes=umlLifeline;portConstraint=eastwest;newEdgeStyle={&quot;curved&quot;:0,&quot;rounded&quot;:0};fillColor=#000000;flipH=0;flipV=0;" vertex="1" parent="1">
          <mxGeometry x="557" y="1375" width="10" height="80" as="geometry" />
        </mxCell>
        <mxCell id="UuXzAFl8zNPXqUN-9O2e-153" value="" style="edgeStyle=orthogonalEdgeStyle;rounded=0;orthogonalLoop=1;jettySize=auto;html=1;exitX=0.016;exitY=0.677;exitDx=0;exitDy=0;exitPerimeter=0;" edge="1" parent="1" source="UuXzAFl8zNPXqUN-9O2e-128" target="UuXzAFl8zNPXqUN-9O2e-152">
          <mxGeometry relative="1" as="geometry">
            <mxPoint x="645" y="1415" as="sourcePoint" />
            <Array as="points">
              <mxPoint x="640" y="1349" />
              <mxPoint x="590" y="1350" />
              <mxPoint x="590" y="1415" />
            </Array>
          </mxGeometry>
        </mxCell>
        <mxCell id="UuXzAFl8zNPXqUN-9O2e-155" value="" style="edgeStyle=orthogonalEdgeStyle;rounded=0;orthogonalLoop=1;jettySize=auto;html=1;curved=0;entryX=0.992;entryY=0.683;entryDx=0;entryDy=0;entryPerimeter=0;" edge="1" parent="1" source="UuXzAFl8zNPXqUN-9O2e-156" target="UuXzAFl8zNPXqUN-9O2e-128">
          <mxGeometry relative="1" as="geometry">
            <mxPoint x="725" y="1415" as="targetPoint" />
            <Array as="points">
              <mxPoint x="760" y="1415" />
              <mxPoint x="760" y="1350" />
              <mxPoint x="719" y="1350" />
            </Array>
          </mxGeometry>
        </mxCell>
        <mxCell id="UuXzAFl8zNPXqUN-9O2e-156" value="" style="html=1;points=[[0,0,0,0,5],[0,1,0,0,-5],[1,0,0,0,5],[1,1,0,0,-5]];perimeter=orthogonalPerimeter;outlineConnect=0;targetShapes=umlLifeline;portConstraint=eastwest;newEdgeStyle={&quot;curved&quot;:0,&quot;rounded&quot;:0};fillColor=#000000;flipH=0;flipV=0;" vertex="1" parent="1">
          <mxGeometry x="803" y="1375" width="10" height="80" as="geometry" />
        </mxCell>
        <mxCell id="UuXzAFl8zNPXqUN-9O2e-157" value="" style="edgeStyle=orthogonalEdgeStyle;rounded=0;orthogonalLoop=1;jettySize=auto;html=1;" edge="1" parent="1" source="UuXzAFl8zNPXqUN-9O2e-158" target="UuXzAFl8zNPXqUN-9O2e-156">
          <mxGeometry relative="1" as="geometry" />
        </mxCell>
        <mxCell id="UuXzAFl8zNPXqUN-9O2e-158" value="" style="ellipse;whiteSpace=wrap;html=1;aspect=fixed;flipH=0;flipV=0;" vertex="1" parent="1">
          <mxGeometry x="892" y="1375" width="80" height="80" as="geometry" />
        </mxCell>
        <mxCell id="UuXzAFl8zNPXqUN-9O2e-159" value="" style="edgeStyle=orthogonalEdgeStyle;rounded=0;orthogonalLoop=1;jettySize=auto;html=1;curved=0;" edge="1" parent="1" source="UuXzAFl8zNPXqUN-9O2e-160" target="UuXzAFl8zNPXqUN-9O2e-158">
          <mxGeometry relative="1" as="geometry" />
        </mxCell>
        <mxCell id="UuXzAFl8zNPXqUN-9O2e-160" value="" style="html=1;points=[[0,0,0,0,5],[0,1,0,0,-5],[1,0,0,0,5],[1,1,0,0,-5]];perimeter=orthogonalPerimeter;outlineConnect=0;targetShapes=umlLifeline;portConstraint=eastwest;newEdgeStyle={&quot;curved&quot;:0,&quot;rounded&quot;:0};fillColor=#000000;flipH=0;flipV=0;" vertex="1" parent="1">
          <mxGeometry x="1050" y="1375" width="10" height="80" as="geometry" />
        </mxCell>
        <mxCell id="UuXzAFl8zNPXqUN-9O2e-161" value="&lt;div&gt;Vehiculo se aproxima&lt;/div&gt;&lt;div&gt;al puente&lt;br&gt;&lt;/div&gt;" style="text;html=1;align=center;verticalAlign=middle;resizable=0;points=[];autosize=1;strokeColor=none;fillColor=none;flipH=0;flipV=0;" vertex="1" parent="1">
          <mxGeometry x="985" y="1480" width="140" height="40" as="geometry" />
        </mxCell>
        <mxCell id="UuXzAFl8zNPXqUN-9O2e-162" value="Vehiculo espera el ingreso" style="text;html=1;align=center;verticalAlign=middle;resizable=0;points=[];autosize=1;strokeColor=none;fillColor=none;flipH=0;flipV=0;" vertex="1" parent="1">
          <mxGeometry x="850" y="1455" width="170" height="30" as="geometry" />
        </mxCell>
        <mxCell id="UuXzAFl8zNPXqUN-9O2e-163" value="&lt;div&gt;Vehiculo entra&lt;/div&gt;&lt;div&gt;al puente&lt;br&gt;&lt;/div&gt;" style="text;html=1;align=center;verticalAlign=middle;resizable=0;points=[];autosize=1;strokeColor=none;fillColor=none;flipH=0;flipV=0;" vertex="1" parent="1">
          <mxGeometry x="758" y="1460" width="100" height="40" as="geometry" />
        </mxCell>
        <mxCell id="UuXzAFl8zNPXqUN-9O2e-165" value="&lt;div&gt;Vehiculo&lt;/div&gt;&lt;div&gt;sale del puente&lt;br&gt;&lt;/div&gt;" style="text;html=1;align=center;verticalAlign=middle;resizable=0;points=[];autosize=1;strokeColor=none;fillColor=none;flipH=0;flipV=0;" vertex="1" parent="1">
          <mxGeometry x="507" y="1455" width="110" height="40" as="geometry" />
        </mxCell>
        <mxCell id="UuXzAFl8zNPXqUN-9O2e-166" value="Salida" style="text;html=1;align=center;verticalAlign=middle;resizable=0;points=[];autosize=1;strokeColor=none;fillColor=none;flipH=0;flipV=0;" vertex="1" parent="1">
          <mxGeometry x="408" y="1460" width="60" height="30" as="geometry" />
        </mxCell>
        <mxCell id="UuXzAFl8zNPXqUN-9O2e-167" value="&lt;div&gt;Vehiculo se retira&lt;br&gt;&lt;/div&gt;" style="text;html=1;align=center;verticalAlign=middle;resizable=0;points=[];autosize=1;strokeColor=none;fillColor=none;flipH=0;flipV=0;" vertex="1" parent="1">
          <mxGeometry x="255" y="1465" width="120" height="30" as="geometry" />
        </mxCell>
        <mxCell id="UuXzAFl8zNPXqUN-9O2e-175" value="" style="endArrow=classic;html=1;rounded=0;entryX=1;entryY=0;entryDx=0;entryDy=5;entryPerimeter=0;" edge="1" parent="1" target="UuXzAFl8zNPXqUN-9O2e-156">
          <mxGeometry width="50" height="50" relative="1" as="geometry">
            <mxPoint x="710" y="1155" as="sourcePoint" />
            <mxPoint x="760" y="1105" as="targetPoint" />
            <Array as="points">
              <mxPoint x="850" y="1155" />
              <mxPoint x="850" y="1380" />
            </Array>
          </mxGeometry>
        </mxCell>
        <mxCell id="UuXzAFl8zNPXqUN-9O2e-176" value="" style="endArrow=classic;html=1;rounded=0;entryX=0.066;entryY=0.752;entryDx=0;entryDy=0;entryPerimeter=0;" edge="1" parent="1" target="UuXzAFl8zNPXqUN-9O2e-131">
          <mxGeometry width="50" height="50" relative="1" as="geometry">
            <mxPoint x="567" y="1385" as="sourcePoint" />
            <mxPoint x="617" y="1335" as="targetPoint" />
            <Array as="points">
              <mxPoint x="580" y="1385" />
              <mxPoint x="580" y="1320" />
              <mxPoint x="580" y="1260" />
              <mxPoint x="580" y="1150" />
            </Array>
          </mxGeometry>
        </mxCell>
        <mxCell id="UuXzAFl8zNPXqUN-9O2e-178" style="edgeStyle=orthogonalEdgeStyle;rounded=0;orthogonalLoop=1;jettySize=auto;html=1;exitX=1;exitY=0.5;exitDx=0;exitDy=0;entryX=1;entryY=1;entryDx=0;entryDy=0;" edge="1" parent="1" source="UuXzAFl8zNPXqUN-9O2e-133" target="UuXzAFl8zNPXqUN-9O2e-133">
          <mxGeometry relative="1" as="geometry" />
        </mxCell>
        <mxCell id="UuXzAFl8zNPXqUN-9O2e-180" value="" style="ellipse;whiteSpace=wrap;html=1;aspect=fixed;fillColor=#050505;" vertex="1" parent="1">
          <mxGeometry x="670" y="1100" width="20" height="20" as="geometry" />
        </mxCell>
        <mxCell id="UuXzAFl8zNPXqUN-9O2e-183" value="&lt;font style=&quot;font-size: 26px;&quot;&gt;A)&lt;/font&gt;" style="text;html=1;align=center;verticalAlign=middle;resizable=0;points=[];autosize=1;strokeColor=none;fillColor=none;" vertex="1" parent="1">
          <mxGeometry x="240" y="85" width="50" height="40" as="geometry" />
        </mxCell>
        <mxCell id="UuXzAFl8zNPXqUN-9O2e-184" value="B)" style="text;html=1;align=center;verticalAlign=middle;resizable=0;points=[];autosize=1;strokeColor=none;fillColor=none;fontSize=25;" vertex="1" parent="1">
          <mxGeometry x="240" y="430" width="50" height="40" as="geometry" />
        </mxCell>
        <mxCell id="UuXzAFl8zNPXqUN-9O2e-185" value="C)" style="text;html=1;align=center;verticalAlign=middle;resizable=0;points=[];autosize=1;strokeColor=none;fillColor=none;fontSize=25;" vertex="1" parent="1">
          <mxGeometry x="240" y="1050" width="50" height="40" as="geometry" />
        </mxCell>
      </root>
    </mxGraphModel>
  </diagram>
</mxfile>
